<svg id="visual" viewBox="0 0 900 300" width="900" height="300" xmlns="http://www.w3.org/2000/svg" xmlns:xlink="http://www.w3.org/1999/xlink" version="1.1"><rect x="0" y="0" width="900" height="300" fill="#7FFFD4"></rect><path d="M0 209L21.5 205C43 201 86 193 128.8 183.2C171.7 173.3 214.3 161.7 257.2 162.3C300 163 343 176 385.8 178.8C428.7 181.7 471.3 174.3 514.2 175.8C557 177.3 600 187.7 642.8 182.7C685.7 177.7 728.3 157.3 771.2 161C814 164.7 857 192.3 878.5 206.2L900 220L900 0L878.5 0C857 0 814 0 771.2 0C728.3 0 685.7 0 642.8 0C600 0 557 0 514.2 0C471.3 0 428.7 0 385.8 0C343 0 300 0 257.2 0C214.3 0 171.7 0 128.8 0C86 0 43 0 21.5 0L0 0Z" fill="#7fffd4"></path><path d="M0 136L21.5 143C43 150 86 164 128.8 163.8C171.7 163.7 214.3 149.3 257.2 146.2C300 143 343 151 385.8 153.8C428.7 156.7 471.3 154.3 514.2 147C557 139.7 600 127.3 642.8 131.7C685.7 136 728.3 157 771.2 159.5C814 162 857 146 878.5 138L900 130L900 0L878.5 0C857 0 814 0 771.2 0C728.3 0 685.7 0 642.8 0C600 0 557 0 514.2 0C471.3 0 428.7 0 385.8 0C343 0 300 0 257.2 0C214.3 0 171.7 0 128.8 0C86 0 43 0 21.5 0L0 0Z" fill="#79d9a3"></path><path d="M0 142L21.5 136.5C43 131 86 120 128.8 116.7C171.7 113.3 214.3 117.7 257.2 112.8C300 108 343 94 385.8 96.3C428.7 98.7 471.3 117.3 514.2 121C557 124.7 600 113.3 642.8 106C685.7 98.7 728.3 95.3 771.2 101C814 106.7 857 121.3 878.5 128.7L900 136L900 0L878.5 0C857 0 814 0 771.2 0C728.3 0 685.7 0 642.8 0C600 0 557 0 514.2 0C471.3 0 428.7 0 385.8 0C343 0 300 0 257.2 0C214.3 0 171.7 0 128.8 0C86 0 43 0 21.5 0L0 0Z" fill="#70b377"></path><path d="M0 78L21.5 81.8C43 85.7 86 93.3 128.8 97.2C171.7 101 214.3 101 257.2 100.7C300 100.3 343 99.7 385.8 98.7C428.7 97.7 471.3 96.3 514.2 89C557 81.7 600 68.3 642.8 67C685.7 65.7 728.3 76.3 771.2 78C814 79.7 857 72.3 878.5 68.7L900 65L900 0L878.5 0C857 0 814 0 771.2 0C728.3 0 685.7 0 642.8 0C600 0 557 0 514.2 0C471.3 0 428.7 0 385.8 0C343 0 300 0 257.2 0C214.3 0 171.7 0 128.8 0C86 0 43 0 21.5 0L0 0Z" fill="#648e50"></path><path d="M0 48L21.5 50.5C43 53 86 58 128.8 59C171.7 60 214.3 57 257.2 54C300 51 343 48 385.8 45.3C428.7 42.7 471.3 40.3 514.2 39.3C557 38.3 600 38.7 642.8 39C685.7 39.3 728.3 39.7 771.2 44.2C814 48.7 857 57.3 878.5 61.7L900 66L900 0L878.5 0C857 0 814 0 771.2 0C728.3 0 685.7 0 642.8 0C600 0 557 0 514.2 0C471.3 0 428.7 0 385.8 0C343 0 300 0 257.2 0C214.3 0 171.7 0 128.8 0C86 0 43 0 21.5 0L0 0Z" fill="#556b2f"></path></svg>