<svg id="visual" viewBox="0 0 900 300" width="900" height="300" xmlns="http://www.w3.org/2000/svg" xmlns:xlink="http://www.w3.org/1999/xlink" version="1.1"><rect x="0" y="0" width="900" height="300" fill="#7FFFD4"></rect><path d="M0 91L21.5 94.8C43 98.7 86 106.3 128.8 109.2C171.7 112 214.3 110 257.2 106.7C300 103.3 343 98.7 385.8 95.2C428.7 91.7 471.3 89.3 514.2 93.5C557 97.7 600 108.3 642.8 107.2C685.7 106 728.3 93 771.2 93.5C814 94 857 108 878.5 115L900 122L900 0L878.5 0C857 0 814 0 771.2 0C728.3 0 685.7 0 642.8 0C600 0 557 0 514.2 0C471.3 0 428.7 0 385.8 0C343 0 300 0 257.2 0C214.3 0 171.7 0 128.8 0C86 0 43 0 21.5 0L0 0Z" fill="#7fffd4"></path><path d="M0 98L21.5 93.5C43 89 86 80 128.8 75.7C171.7 71.3 214.3 71.7 257.2 72C300 72.3 343 72.7 385.8 71.3C428.7 70 471.3 67 514.2 68.3C557 69.7 600 75.3 642.8 79.7C685.7 84 728.3 87 771.2 85.3C814 83.7 857 77.3 878.5 74.2L900 71L900 0L878.5 0C857 0 814 0 771.2 0C728.3 0 685.7 0 642.8 0C600 0 557 0 514.2 0C471.3 0 428.7 0 385.8 0C343 0 300 0 257.2 0C214.3 0 171.7 0 128.8 0C86 0 43 0 21.5 0L0 0Z" fill="#79d9a3"></path><path d="M0 75L21.5 73.7C43 72.3 86 69.7 128.8 66.5C171.7 63.3 214.3 59.7 257.2 60.2C300 60.7 343 65.3 385.8 65.5C428.7 65.7 471.3 61.3 514.2 60.7C557 60 600 63 642.8 63.5C685.7 64 728.3 62 771.2 58.8C814 55.7 857 51.3 878.5 49.2L900 47L900 0L878.5 0C857 0 814 0 771.2 0C728.3 0 685.7 0 642.8 0C600 0 557 0 514.2 0C471.3 0 428.7 0 385.8 0C343 0 300 0 257.2 0C214.3 0 171.7 0 128.8 0C86 0 43 0 21.5 0L0 0Z" fill="#70b377"></path><path d="M0 56L21.5 51.5C43 47 86 38 128.8 38C171.7 38 214.3 47 257.2 48.7C300 50.3 343 44.7 385.8 40C428.7 35.3 471.3 31.7 514.2 32.8C557 34 600 40 642.8 45C685.7 50 728.3 54 771.2 55.2C814 56.3 857 54.7 878.5 53.8L900 53L900 0L878.5 0C857 0 814 0 771.2 0C728.3 0 685.7 0 642.8 0C600 0 557 0 514.2 0C471.3 0 428.7 0 385.8 0C343 0 300 0 257.2 0C214.3 0 171.7 0 128.8 0C86 0 43 0 21.5 0L0 0Z" fill="#648e50"></path><path d="M0 21L21.5 22.7C43 24.3 86 27.7 128.8 28.2C171.7 28.7 214.3 26.3 257.2 24.3C300 22.3 343 20.7 385.8 21.5C428.7 22.3 471.3 25.7 514.2 28.2C557 30.7 600 32.3 642.8 31C685.7 29.7 728.3 25.3 771.2 22.5C814 19.7 857 18.3 878.5 17.7L900 17L900 0L878.5 0C857 0 814 0 771.2 0C728.3 0 685.7 0 642.8 0C600 0 557 0 514.2 0C471.3 0 428.7 0 385.8 0C343 0 300 0 257.2 0C214.3 0 171.7 0 128.8 0C86 0 43 0 21.5 0L0 0Z" fill="#556b2f"></path></svg>